<svg xmlns="http://www.w3.org/2000/svg" viewBox="0 0 1000 700">
  <rect x="40" y="70" width="920" height="580" rx="28" fill="var(--map-bg)" stroke="var(--map-wall)" stroke-width="3"/>

  <g fill="none" stroke="var(--map-corridor)" stroke-width="46" stroke-linecap="round" stroke-linejoin="round">
    <path d="M120,350 L250,350 L400,350 L550,350 L700,350 L850,350 L920,350"/>
    <path d="M850,350 L850,300"/>
  </g>
  <g fill="none" stroke="var(--map-corridor-spur)" stroke-width="26" stroke-linecap="round" stroke-linejoin="round">
    <path d="M400,350 L400,470"/>
    <path d="M250,350 L250,230"/>
    <path d="M250,230 L330,230"/>
    <path d="M700,350 L700,230"/>
    <path d="M700,350 L700,470"/>
  </g>

  <g class="room-zones">
    <rect x="150" y="95" width="130" height="105" rx="14" class="room room-buku"/>
    <text x="215" y="150" class="room-label">GRAMEDIA</text>

    <rect x="290" y="95" width="120" height="105" rx="14" class="room room-elektronik"/>
    <text x="350" y="150" class="room-label">E-CITY</text>

    <rect x="330" y="465" width="150" height="105" rx="14" class="room room-service"/>
    <text x="405" y="520" class="room-label">TOILET</text>

    <rect x="630" y="95" width="150" height="105" rx="14" class="room room-hiburan"/>
    <text x="705" y="140" class="room-label">XXI</text>
    <text x="705" y="162" class="room-label">CINEMA</text>

    <rect x="630" y="465" width="150" height="105" rx="14" class="room room-olahraga"/>
    <text x="705" y="500" class="room-label">SPORT</text>
    <text x="705" y="522" class="room-label">STATION</text>

    <rect x="795" y="250" width="90" height="90" rx="14" class="room room-utility"/>
    <text x="840" y="300" class="room-label">LIFT</text>
  </g>

  <g class="entrances">
    <text x="945" y="335" class="zone-label" text-anchor="middle">ESKALATOR</text>
  </g>

  <text x="70" y="105" class="floor-tag">LANTAI 2 &#183; FASHION &amp; ENTERTAINMENT</text>
</svg>
